<svg width="238" height="16" viewBox="0 0 238 16" fill="none" xmlns="http://www.w3.org/2000/svg">
<path d="M4.70558 14.9283L0.206778 0.934296L5.06677 0.927767L8.70265 12.7429L6.26265 12.7462L10.0868 0.921023L14.4268 0.915193L18.0226 12.7304L15.6826 12.7335L19.4468 0.908448L23.9268 0.90243L19.4656 14.9084L14.4056 14.9152L11.4726 5.23917L12.8326 5.23734L9.76558 14.9215L4.70558 14.9283ZM28.8267 14.8959L24.3279 0.901891L29.1878 0.895362L32.8237 12.7105L30.3837 12.7138L34.2078 0.888618L38.5478 0.882787L42.1437 12.698L39.8037 12.7011L43.5678 0.876043L48.0478 0.870025L43.5866 14.876L38.5266 14.8828L35.5936 5.20676L36.9536 5.20493L33.8867 14.8891L28.8267 14.8959ZM52.9477 14.8635L48.4489 0.869486L53.3089 0.862957L56.9448 12.6781L54.5048 12.6814L58.3289 0.856213L62.6689 0.850382L66.2648 12.6656L63.9248 12.6687L67.6889 0.843638L72.1689 0.83762L67.7077 14.8436L62.6477 14.8504L59.7147 5.17436L61.0747 5.17253L58.0077 14.8567L52.9477 14.8635ZM74.6283 15.0343C73.8816 15.0353 73.2546 14.7962 72.7473 14.3169C72.24 13.8242 71.9858 13.1979 71.9848 12.4379C71.9838 11.6645 72.2363 11.0442 72.7423 10.5769C73.2483 10.1095 73.8747 9.87534 74.6214 9.87433C75.368 9.87333 75.995 10.1058 76.5023 10.5718C77.0096 11.0378 77.2638 11.6575 77.2648 12.4308C77.2658 13.1908 77.0133 13.8178 76.5073 14.3118C76.0013 14.7925 75.375 15.0333 74.6283 15.0343ZM78.8022 14.8287L78.7834 0.828733L82.6634 0.823521L88.2757 9.95599L86.2357 9.95873L91.6634 0.81143L95.5434 0.806217L95.6022 14.8062L91.3022 14.8119L91.2521 7.29199L91.9321 7.29108L88.2205 13.5561L86.1405 13.5589L82.2521 7.30408L83.0921 7.30295L83.1022 14.8229L78.8022 14.8287ZM101.484 14.7983L101.476 8.65826L102.56 11.4768L96.1854 0.805355L101.165 0.798665L105.475 8.09288L102.575 8.09678L106.905 0.790953L111.465 0.784827L105.16 11.4733L106.196 8.65191L106.204 14.7919L101.484 14.7983ZM112.083 14.784L112.065 0.784022L118.805 0.774967C120.111 0.773212 121.238 0.985032 122.185 1.41043C123.146 1.8358 123.887 2.44814 124.408 3.24744C124.929 4.03341 125.19 4.96639 125.192 6.04639C125.193 7.12639 124.934 8.06007 124.415 8.84744C123.897 9.6348 123.157 10.2491 122.198 10.6904C121.252 11.1184 120.125 11.3332 118.819 11.335L114.699 11.3405L116.796 9.31767L116.803 14.7777L112.083 14.784ZM116.797 9.83767L114.694 7.7005L118.514 7.69537C119.167 7.69449 119.647 7.54718 119.953 7.25343C120.273 6.95967 120.432 6.55945 120.432 6.05279C120.431 5.54612 120.271 5.14634 119.95 4.85343C119.643 4.56051 119.163 4.41449 118.51 4.41537L114.69 4.4205L116.787 2.27768L116.797 9.83767ZM126.751 14.7643L126.733 0.764317L133.473 0.755262C134.779 0.753507 135.906 0.965326 136.853 1.39072C137.814 1.8161 138.555 2.42844 139.076 3.22774C139.597 4.0137 139.858 4.94669 139.86 6.02669C139.861 7.10669 139.602 8.04037 139.083 8.82773C138.564 9.60176 137.825 10.1961 136.866 10.6107C135.92 11.0253 134.793 11.2335 133.487 11.2353L129.367 11.2408L131.464 9.29797L131.471 14.758L126.751 14.7643ZM135.131 14.753L131.685 9.65767L136.685 9.65096L140.171 14.7463L135.131 14.753ZM131.465 9.81797L129.362 7.68079L133.182 7.67566C133.835 7.67478 134.315 7.52747 134.621 7.23373C134.941 6.93996 135.1 6.53975 135.1 6.03308C135.099 5.52641 134.938 5.12663 134.618 4.83373C134.311 4.54081 133.831 4.39478 133.177 4.39566L129.357 4.40079L131.455 2.25798L131.465 9.81797ZM148.994 15.0544C147.861 15.0559 146.807 14.8774 145.833 14.5187C144.873 14.16 144.039 13.6544 143.331 13.002C142.624 12.3363 142.069 11.5571 141.668 10.6643C141.28 9.77145 141.086 8.79838 141.084 7.74504C141.083 6.67838 141.275 5.70479 141.66 4.82427C142.059 3.9304 142.612 3.15632 143.317 2.50204C144.023 1.83442 144.856 1.31997 145.815 0.958681C146.788 0.597374 147.841 0.415959 148.974 0.414436C150.121 0.412896 151.175 0.591481 152.135 0.950191C153.096 1.3089 153.93 1.82111 154.637 2.48683C155.345 3.13921 155.893 3.91181 156.28 4.80463C156.682 5.68409 156.883 6.65715 156.884 7.72382C156.886 8.77715 156.687 9.75075 156.288 10.6446C155.903 11.5385 155.357 12.3192 154.651 12.9868C153.946 13.6411 153.113 14.1489 152.153 14.5102C151.194 14.8715 150.141 15.0529 148.994 15.0544ZM148.989 11.2344C149.429 11.2338 149.836 11.1533 150.209 10.9928C150.595 10.8323 150.928 10.6052 151.208 10.3114C151.501 10.0044 151.727 9.63741 151.886 9.21053C152.046 8.77032 152.125 8.27688 152.124 7.73021C152.124 7.18355 152.043 6.69699 151.882 6.27054C151.722 5.83075 151.495 5.46439 151.201 5.17145C150.92 4.86516 150.587 4.63227 150.2 4.47279C149.826 4.3133 149.42 4.23384 148.98 4.23443C148.54 4.23502 148.126 4.31558 147.74 4.4761C147.367 4.6366 147.034 4.87038 146.741 5.17744C146.461 5.47115 146.242 5.83811 146.082 6.27833C145.923 6.70521 145.844 7.19198 145.844 7.73865C145.845 8.28531 145.926 8.77854 146.086 9.21832C146.247 9.64478 146.467 10.0111 146.748 10.3174C147.042 10.6104 147.375 10.8366 147.749 10.9961C148.136 11.1556 148.549 11.235 148.989 11.2344ZM161.854 15.0371C160.761 15.0386 159.774 14.8666 158.894 14.5211C158.013 14.1623 157.279 13.6433 156.692 12.9641L159.227 9.96067C159.601 10.4135 159.969 10.7597 160.329 10.9992C160.689 11.2254 161.063 11.3382 161.449 11.3377C162.463 11.3363 162.969 10.7556 162.967 9.59565L162.96 4.27565L158.2 4.28205L158.195 0.722049L167.615 0.709394L167.627 9.30939C167.629 11.2294 167.138 12.6634 166.152 13.6114C165.167 14.5594 163.734 15.0346 161.854 15.0371ZM174.106 5.90068L180.346 5.8923L180.351 9.29229L174.111 9.30068L174.106 5.90068ZM174.433 11.1402L181.433 11.1308L181.438 14.6908L169.798 14.7065L169.779 0.706486L181.159 0.691198L181.164 4.2512L174.424 4.26025L174.433 11.1402ZM190.496 14.9987C189.376 15.0002 188.335 14.8282 187.375 14.4829C186.428 14.1241 185.6 13.6186 184.893 12.9662C184.199 12.3138 183.658 11.5412 183.27 10.6484C182.882 9.75556 182.687 8.76915 182.686 7.68915C182.684 6.60915 182.876 5.62223 183.262 4.72838C183.647 3.83453 184.186 3.06047 184.879 2.4062C185.585 1.75192 186.411 1.25081 187.357 0.902873C188.316 0.541583 189.356 0.360186 190.476 0.358682C191.849 0.356837 193.063 0.595207 194.117 1.07379C195.184 1.55236 196.065 2.24451 196.76 3.15024L193.783 5.81424C193.369 5.2948 192.909 4.89542 192.402 4.6161C191.908 4.32343 191.348 4.17751 190.721 4.17836C190.228 4.17902 189.781 4.25962 189.381 4.42016C188.982 4.58069 188.635 4.81449 188.342 5.12155C188.063 5.4286 187.843 5.80222 187.684 6.24244C187.524 6.66932 187.445 7.14943 187.446 7.68276C187.447 8.21609 187.527 8.70265 187.688 9.14244C187.848 9.56889 188.069 9.93526 188.349 10.2415C188.643 10.5478 188.99 10.7807 189.39 10.9402C189.79 11.0996 190.237 11.179 190.731 11.1783C191.357 11.1775 191.917 11.0368 192.41 10.7561C192.916 10.4621 193.376 10.0548 193.788 9.53424L196.772 12.1902C196.08 13.0845 195.201 13.779 194.135 14.2738C193.082 14.7552 191.869 14.9968 190.496 14.9987ZM201.08 14.6644L201.067 4.32446L196.967 4.32997L196.962 0.669968L209.882 0.652611L209.887 4.31261L205.787 4.31812L205.8 14.6581L201.08 14.6644ZM212.323 14.8493C211.577 14.8503 210.95 14.6112 210.443 14.1319C209.935 13.6392 209.681 13.0129 209.68 12.2529C209.679 11.4796 209.931 10.8592 210.437 10.3919C210.944 9.92453 211.57 9.69035 212.317 9.68935C213.063 9.68835 213.69 9.92084 214.197 10.3868C214.705 10.8528 214.959 11.4725 214.96 12.2458C214.961 13.0058 214.709 13.6328 214.203 14.1268C213.696 14.6075 213.07 14.8483 212.323 14.8493ZM215.583 14.645L221.684 0.636755L226.324 0.630522L232.463 14.6223L227.583 14.6288L223.047 2.87493L224.887 2.87246L220.383 14.6385L215.583 14.645ZM219.22 12.2001L220.415 8.79847L226.855 8.78982L228.06 12.1882L219.22 12.2001ZM233.216 14.6213L233.197 0.621288L237.917 0.614947L237.936 14.6149L233.216 14.6213Z" fill="#003F6B"/>
</svg>
